<svg width="1909" height="834" viewBox="0 0 1909 834" fill="none" xmlns="http://www.w3.org/2000/svg">
<g opacity="0.5">
<path opacity="0.28" d="M116.648 702.334L139.197 712.846L102.016 791.949L30.0656 758.171L67.0737 679.068L87.041 688.374" stroke="white" stroke-width="1.7865" stroke-miterlimit="10" stroke-linecap="square"/>
<path opacity="0.28" d="M124.112 720.6L70.5179 695.392L56.7582 724.717L110.352 749.925L124.112 720.6Z" stroke="white" stroke-width="1.7865" stroke-miterlimit="10" stroke-linecap="square"/>
<path opacity="0.28" d="M46.5902 748.865C47.9672 745.935 51.4099 744.729 54.3361 746.107C57.2623 747.486 58.4672 750.933 57.0902 753.863C55.7131 756.792 52.2705 757.999 49.3443 756.62C46.5902 755.241 45.3853 751.795 46.5902 748.865Z" stroke="white" stroke-width="1.7865" stroke-miterlimit="10" stroke-linecap="square"/>
<path opacity="0.28" d="M89.4509 769.028C90.828 766.099 94.2706 764.892 97.1968 766.271C100.123 767.65 101.328 771.097 99.9509 774.026C98.5738 776.956 95.1312 778.162 92.205 776.784C89.2788 775.405 88.0739 771.958 89.4509 769.028Z" stroke="white" stroke-width="1.7865" stroke-miterlimit="10" stroke-linecap="square"/>
<path opacity="0.28" d="M37.6394 781.609L33.164 779.541C30.9263 778.507 29.8935 775.75 30.9263 773.509L36.7788 761.101L49.5165 767.133L43.664 779.541C42.6313 781.782 39.8772 782.816 37.6394 781.609Z" stroke="white" stroke-width="1.7865" stroke-miterlimit="10" stroke-linecap="square"/>
<path opacity="0.28" d="M81.877 802.462L77.4016 800.394C75.1639 799.36 74.1311 796.603 75.1639 794.362L81.0163 781.954L93.754 787.986L87.9016 800.394C86.8688 802.634 84.2868 803.496 81.877 802.462Z" stroke="white" stroke-width="1.7865" stroke-miterlimit="10" stroke-linecap="square"/>
<path opacity="0.28" d="M119.905 695.169L91.394 681.759L85.978 693.302L114.489 706.712L119.905 695.169Z" stroke="white" stroke-width="1.7865" stroke-miterlimit="10" stroke-linecap="square"/>
</g>
<g opacity="0.5">
<path opacity="0.26" d="M159.508 731.459C159.508 731.459 175.861 769.546 166.393 800.739C156.926 831.932 124.221 780.92 151.074 777.99C177.926 775.06 173.106 830.036 225.951 832.621C262.098 834.345 283.959 811.079 294.115 796.258" stroke="white" stroke-width="1.5111" stroke-miterlimit="10" stroke-linecap="round" stroke-dasharray="6.92 6.92"/>
<path opacity="0.26" d="M301 784.367C299.795 791.088 299.106 800.049 300.311 806.598L293.082 797.637L281.893 795.396C288.09 793.5 295.664 788.675 301 784.367Z" fill="white"/>
</g>
<g opacity="0.5">
<path opacity="0.27" d="M1680.69 81.0474L1682.6 71.3391L1698.35 74.4841L1696.43 84.1923L1738.87 92.8068C1741.88 93.4904 1743.94 96.3619 1743.25 99.5068L1734.22 144.22C1733.53 147.228 1730.66 149.279 1727.51 148.595L1662.48 135.469C1659.46 134.785 1657.41 131.913 1658.1 128.768L1667.13 84.3291C1667.68 81.3209 1670.55 79.4066 1673.57 79.9535L1680.69 81.0474Z" stroke="white" stroke-width="1.3406" stroke-miterlimit="10" stroke-linecap="square"/>
<path opacity="0.27" d="M1685.28 88.7156L1673.34 86.2889L1672.41 90.8445L1684.35 93.2711L1685.28 88.7156Z" fill="white"/>
<path opacity="0.27" d="M1735.65 98.9927L1723.71 96.566L1722.78 101.122L1734.72 103.548L1735.65 98.9927Z" fill="white"/>
<path opacity="0.27" d="M1719.02 117.146C1721.07 107.027 1714.5 97.0456 1704.37 94.9945C1694.24 92.9435 1684.25 99.5068 1682.19 109.625C1680.14 119.744 1686.71 129.726 1696.84 131.777C1706.97 133.964 1716.97 127.401 1719.02 117.146Z" stroke="white" stroke-width="1.3406" stroke-miterlimit="10" stroke-linecap="square"/>
<path opacity="0.27" d="M1714.37 116.189C1715.87 108.531 1710.94 101.148 1703.28 99.5068C1695.61 98.0027 1688.22 102.925 1686.57 110.582C1685.07 118.24 1690 125.624 1697.66 127.264C1705.33 128.768 1712.86 123.846 1714.37 116.189Z" stroke="white" stroke-width="1.3406" stroke-miterlimit="10" stroke-linecap="square"/>
</g>
<path opacity="0.5" d="M1774.61 50.6919C1774.61 48.6408 1776.25 47 1778.3 47C1780.36 47 1782 48.6408 1782 50.6919C1782 52.7429 1780.36 54.3838 1778.3 54.3838C1776.25 54.247 1774.61 52.6062 1774.61 50.6919Z" fill="white"/>
<path opacity="0.5" d="M1755.03 197C1753.93 197 1752.97 196.043 1752.97 194.949C1752.97 193.855 1753.93 192.898 1755.03 192.898" fill="white"/>
<g clip-path="url(#clip0_21_243)">
<path opacity="0.27" d="M189.449 195.518C192.132 194.799 193.722 192.032 193 189.337C192.277 186.642 189.517 185.04 186.834 185.759C184.151 186.478 182.561 189.245 183.284 191.94C184.006 194.635 186.766 196.237 189.449 195.518Z" fill="white"/>
<g opacity="0.27">
<path opacity="0.27" d="M55.955 232.334L54.398 231.705C53.2521 231.315 -55.5614 197.012 -71.9608 121.559C-80.5651 81.6744 -50.8181 52.783 -19.6649 43.3895C9.86898 34.4298 48.2954 40.5214 62.0943 75.1786C85.4328 133.779 56.6402 229.71 56.5779 230.773L55.955 232.334ZM-47.8792 62.4558C-63.6619 76.0991 -73.8773 96.2702 -68.635 121.016C-53.8295 189.226 40.0119 223.356 53.763 228.04C57.6004 215.157 80.2389 129.941 59.03 76.6971C45.667 43.6664 9.44522 38.0302 -18.7932 46.6427C-29.0697 49.7449 -39.3836 55.298 -47.8792 62.4558Z" fill="white"/>
<path opacity="0.27" d="M33.627 152.891C30.1765 155.559 26.7259 158.227 22.6901 160.006C-3.3564 172.912 -34.7947 161.81 -47.2987 135.871C-60.2138 109.694 -49.6364 77.9199 -23.5028 65.3386C-10.9218 59.1781 3.37785 58.1359 16.4813 62.9931C29.8214 67.4383 40.4083 77.1539 46.5732 89.7979C57.2963 111.681 51.4152 137.664 33.627 152.891ZM-44.6455 134.115C-32.9011 158.513 -3.43085 168.748 20.7596 156.687C32.4562 151.112 41.226 141.092 45.4743 128.447C49.8099 116.128 49.0012 102.746 43.0107 90.7525C37.4312 78.9977 27.4296 70.1712 14.8244 65.8779C2.54305 61.4977 -10.785 62.2795 -22.7183 68.2664C-34.4149 73.8413 -43.1846 83.8621 -47.433 96.5068C-51.0337 108.978 -50.2249 122.36 -44.6455 134.115Z" fill="white"/>
<path opacity="0.27" d="M23.1901 133.372L3.50889 142.83L-5.10944 124.916L-22.9346 133.527L-32.3127 114.073L-14.4875 105.462L-23.1058 87.5475L-3.42461 78.0898L5.19372 96.0039L23.0189 87.3922L32.4841 107.171L14.6589 115.783L23.1901 133.372ZM5.05376 138.232L18.5192 131.485L9.90088 113.571L27.7261 104.96L21.063 91.7518L3.23781 100.363L-5.38051 82.4494L-18.846 89.1955L-9.90377 107.023L-27.729 115.635L-20.9787 129.168L-3.15354 120.556L5.05376 138.232Z" fill="white"/>
</g>
</g>
<g clip-path="url(#clip1_21_243)">
<g opacity="0.27">
<path opacity="0.27" d="M1852 826C1826.03 826 1805 804.815 1805 778.987C1805 753.013 1826.03 731.973 1852 731.973C1877.96 731.973 1898.99 753.013 1898.99 778.987C1898.99 804.815 1877.81 826 1852 826ZM1852 733.715C1827.05 733.715 1806.74 754.029 1806.74 778.987C1806.74 803.944 1827.05 824.259 1852 824.259C1876.94 824.259 1897.25 803.944 1897.25 778.987C1897.25 754.029 1876.94 733.715 1852 733.715Z" fill="white"/>
<path opacity="0.27" d="M1852 804.38C1837.93 804.38 1826.61 792.917 1826.61 778.987C1826.61 765.057 1838.07 753.594 1852 753.594C1866.07 753.594 1877.38 765.057 1877.38 778.987C1877.38 792.917 1866.07 804.38 1852 804.38ZM1852 755.19C1838.94 755.19 1828.21 765.782 1828.21 778.987C1828.21 792.046 1838.8 802.784 1852 802.784C1865.05 802.784 1875.78 792.191 1875.78 778.987C1875.78 765.782 1865.05 755.19 1852 755.19Z" fill="white"/>
<path opacity="0.27" d="M1887.24 807.717L1887.1 806.846C1884.78 795.673 1873.17 792.481 1873.17 792.481L1872.3 792.336L1872.74 790.74L1873.61 790.885C1874.19 791.03 1886.23 794.368 1888.84 806.556L1888.98 807.427L1887.24 807.717Z" fill="white"/>
<path opacity="0.27" d="M1877.09 817.729L1876.8 816.859C1874.48 808.007 1865.34 800.897 1865.2 800.752L1864.61 800.317L1865.63 799.011L1866.36 799.591C1866.79 799.881 1876.07 807.137 1878.54 816.568L1878.83 817.439L1877.09 817.729Z" fill="white"/>
<path opacity="0.27" d="M1865.78 758.672L1864.18 758.382L1864.32 757.512C1864.32 757.366 1866.79 744.017 1878.97 741.405L1879.85 741.26L1880.14 742.856L1879.27 743.001C1868.24 745.323 1865.92 757.512 1865.92 757.657L1865.78 758.672Z" fill="white"/>
<path opacity="0.27" d="M1875.64 768.539L1874.19 767.669L1874.62 766.943C1874.91 766.508 1880.57 756.206 1890.14 753.594L1891.01 753.303L1891.45 754.9L1890.58 755.19C1881.73 757.657 1876.22 767.669 1876.07 767.814L1875.64 768.539Z" fill="white"/>
<path opacity="0.27" d="M1826.61 818.019L1826.32 816.423L1827.19 816.278C1838.36 814.392 1839.52 801.332 1839.52 801.187V800.317L1841.26 800.462V801.332C1841.26 801.478 1839.96 815.843 1827.48 817.874L1826.61 818.019Z" fill="white"/>
<path opacity="0.27" d="M1814.28 806.701L1813.85 805.105L1814.72 804.96C1823.57 802.929 1829.37 791.756 1829.37 791.611L1829.8 790.885L1831.25 791.611L1830.82 792.336C1830.53 792.771 1824.73 804.38 1815.01 806.556L1814.28 806.701Z" fill="white"/>
<path opacity="0.27" d="M1831.11 766.798L1830.38 766.508C1829.95 766.363 1818.78 761.719 1816.75 749.386L1816.6 748.515L1818.2 748.225L1818.34 749.095C1820.09 760.413 1830.82 764.912 1830.82 764.912L1831.54 765.202L1831.11 766.798Z" fill="white"/>
<path opacity="0.27" d="M1839.96 758.237L1839.38 757.657C1838.94 757.366 1829.51 749.386 1829.08 739.519V738.648H1830.82V739.519C1831.11 748.66 1840.39 756.351 1840.54 756.351L1841.12 756.931L1839.96 758.237Z" fill="white"/>
</g>
<path opacity="0.27" d="M1909 710.353C1907.84 710.353 1906.82 709.337 1906.82 708.177C1906.82 707.016 1907.84 706 1909 706" fill="white"/>
</g>
<defs>
<clipPath id="clip0_21_243">
<rect width="238.389" height="202.079" fill="white" transform="translate(-88 61.6997) rotate(-15)"/>
</clipPath>
<clipPath id="clip1_21_243">
<rect width="104" height="120" fill="white" transform="translate(1805 706)"/>
</clipPath>
</defs>
</svg>
