<svg width="1756" height="1220" viewBox="0 0 1756 1220" fill="none" xmlns="http://www.w3.org/2000/svg">
<g opacity="0.02">
<path d="M1409.22 433.717C1395.39 419.894 1372.97 419.894 1359.15 433.717L983.549 809.174C969.722 822.997 969.722 845.406 983.549 859.229C997.376 873.051 1019.79 873.051 1033.62 859.229L1409.19 483.772C1423.04 469.949 1423.04 447.54 1409.22 433.717Z" fill="white"/>
<path d="M1217.65 792.329C1210.4 785.088 1198.67 785.088 1191.43 792.329L994.862 988.838C987.619 996.079 987.619 1007.81 994.862 1015.05C1002.1 1022.29 1013.84 1022.29 1021.08 1015.05L1217.65 818.538C1224.89 811.298 1224.89 799.569 1217.65 792.329Z" fill="white"/>
<path d="M1322.81 242.174C1315.63 234.993 1304.02 234.993 1296.84 242.174L1102.09 436.859C1094.91 444.039 1094.91 455.648 1102.09 462.829C1109.28 470.009 1120.89 470.009 1128.07 462.829L1322.81 268.144C1329.97 260.963 1329.97 249.355 1322.81 242.174Z" fill="white"/>
<path d="M1074.2 225.808C1067.2 218.806 1055.88 218.806 1048.88 225.808L859.048 415.585C852.045 422.586 852.045 433.896 859.048 440.897C866.051 447.898 877.364 447.898 884.367 440.897L1074.2 251.119C1081.2 244.148 1081.2 232.809 1074.2 225.808Z" fill="white"/>
<path d="M797.606 431.533C785.006 418.937 764.535 418.937 751.936 431.533L409.319 774.019C396.719 786.615 396.719 807.08 409.319 819.676C421.919 832.272 442.389 832.272 454.989 819.676L797.606 477.16C810.235 464.564 810.235 444.129 797.606 431.533Z" fill="white"/>
<path d="M1740.88 583.314C1720.71 563.148 1688.03 563.148 1667.85 583.314L1120.11 1130.9C1099.94 1151.06 1099.94 1183.73 1120.11 1203.9C1140.28 1224.06 1172.96 1224.06 1193.14 1203.9L1740.85 656.346C1761.02 636.181 1761.02 603.479 1740.88 583.314Z" fill="white"/>
<path d="M382.294 743.082C372.537 733.328 356.735 733.328 346.979 743.082L82.0852 1007.9C72.3287 1017.65 72.3287 1033.45 82.0852 1043.2C91.8418 1052.96 107.644 1052.96 117.4 1043.2L382.294 778.387C392.02 768.633 392.02 752.806 382.294 743.082Z" fill="white"/>
<path d="M334.229 222.248C326.687 214.708 314.477 214.708 306.965 222.248L102.406 426.746C94.8645 434.286 94.8645 446.493 102.406 454.002C109.948 461.542 122.159 461.542 129.671 454.002L334.229 249.504C341.741 241.995 341.741 229.788 334.229 222.248Z" fill="white"/>
<path d="M692.678 704.965C680.527 692.818 660.834 692.818 648.684 704.965L318.786 1034.76C306.636 1046.91 306.636 1066.6 318.786 1078.75C330.937 1090.89 350.63 1090.89 362.781 1078.75L692.678 748.946C704.829 736.799 704.829 717.112 692.678 704.965Z" fill="white"/>
<path d="M873.414 183.981C862.969 173.539 846.029 173.539 835.584 183.981L551.896 467.585C541.451 478.027 541.451 494.962 551.896 505.403C562.341 515.845 579.28 515.845 589.725 505.403L873.414 221.799C883.858 211.357 883.858 194.423 873.414 183.981Z" fill="white"/>
<path d="M888.857 806.092C883.2 800.437 874.012 800.437 868.326 806.092L714.436 959.936C708.779 965.591 708.779 974.776 714.436 980.461C720.092 986.116 729.28 986.116 734.966 980.461L888.857 826.586C894.543 820.932 894.543 811.746 888.857 806.092Z" fill="white"/>
<path d="M1668.54 392.698C1654.99 379.144 1632.99 379.144 1619.43 392.698L1251.2 760.824C1237.64 774.377 1237.64 796.368 1251.2 809.922C1264.75 823.475 1286.75 823.475 1300.31 809.922L1668.54 441.795C1682.1 428.212 1682.1 406.251 1668.54 392.698Z" fill="white"/>
<path d="M374.842 599.41C362.96 587.532 343.687 587.532 331.805 599.41L8.91109 922.179C-2.97036 934.057 -2.97036 953.325 8.91109 965.203C20.7925 977.081 40.0662 977.081 51.9477 965.203L374.812 642.434C386.723 630.556 386.723 611.288 374.842 599.41Z" fill="white"/>
<path d="M792.877 16.2237C771.239 -5.4079 736.133 -5.4079 714.495 16.2237L126.708 603.838C105.07 625.469 105.07 660.565 126.708 682.196C148.346 703.828 183.452 703.828 205.09 682.196L792.877 94.5822C814.515 72.9506 814.515 37.8553 792.877 16.2237Z" fill="white"/>
<path d="M1711.19 73.8184C1694.94 57.5723 1668.6 57.5723 1652.38 73.8184L1211.24 514.828C1194.99 531.074 1194.99 557.403 1211.24 573.62C1227.49 589.866 1253.83 589.866 1270.05 573.62L1711.19 132.61C1727.44 116.394 1727.44 90.0646 1711.19 73.8184Z" fill="white"/>
<path d="M1172.37 360.415C1155.52 343.571 1128.19 343.571 1111.34 360.415L653.712 817.88C636.862 834.725 636.862 862.041 653.712 878.886C670.561 895.73 697.885 895.73 714.735 878.886L1172.37 421.391C1189.21 404.576 1189.21 377.26 1172.37 360.415Z" fill="white"/>
</g>
</svg>
