<svg width="316" height="316" viewBox="0 0 316 316" fill="none" xmlns="http://www.w3.org/2000/svg">
<path d="M48.7789 0.363525L266.648 0.363525C293.318 0.363525 315.064 22.1094 315.064 48.7789V266.648C315.064 293.318 293.318 315.064 266.648 315.064H48.7789C22.1094 314.653 0.363525 292.907 0.363525 266.238L0.363525 48.7789C0.363525 22.1094 22.1094 0.363525 48.7789 0.363525Z" fill="#FFB291"/>
<path d="M314.653 141.097V266.238C314.653 292.907 292.907 314.653 266.238 314.653H48.7789C22.1094 314.653 0.363525 292.907 0.363525 266.238L0.363525 165.714C31.9566 162.842 69.2939 172.279 110.324 207.975C143.148 236.696 166.535 244.082 184.998 240.389V113.606H178.434V98.015H184.998L193.615 71.3455C194.025 69.294 196.077 68.0631 197.718 68.0631C199.769 68.0631 201.41 69.294 201.821 71.3455L210.437 98.015H216.592V76.2691H210.027V60.6777H216.592L226.028 34.0082C226.439 31.9567 228.49 30.7258 230.131 30.7258C232.183 30.7258 233.824 31.9567 234.234 34.0082L242.851 60.6777H250.646V76.2691H242.851V186.229C251.877 174.331 261.725 162.842 273.213 154.226V102.528H267.058V86.9369H273.623L282.24 60.2674C282.65 58.2159 284.701 56.985 286.343 56.985C288.394 56.985 290.035 58.2159 290.446 60.2674L299.062 86.9369H306.858V102.528H299.062V142.327C304.396 141.507 309.319 141.097 314.653 141.097ZM211.258 225.618C213.309 223.567 215.361 221.515 217.412 219.464V113.606H211.258V225.618Z" fill="#FF9378"/>
<path d="M314.653 235.055V266.238C314.653 292.907 292.907 314.653 266.238 314.653H173.51C176.792 306.447 186.229 294.548 215.771 297.01C215.771 297.01 201 283.88 210.437 278.136C219.463 271.982 224.797 285.522 224.797 285.522C224.797 285.522 221.925 268.699 227.259 265.827C232.593 263.365 230.541 283.06 230.541 283.06C230.541 283.06 248.595 248.184 288.804 253.929C287.983 253.929 292.497 236.696 314.653 235.055Z" fill="#8C8C2F"/>
<path d="M314.654 260.083V266.648C314.654 273.623 313.012 280.599 310.14 286.753C306.037 284.702 303.165 280.188 303.165 274.854C303.576 267.469 308.089 261.725 314.654 260.083ZM308.089 290.856C299.473 305.217 284.291 314.653 266.238 314.653H219.054C221.516 310.961 225.619 308.089 230.132 307.678C231.363 307.678 232.594 307.678 233.825 308.089C235.466 293.728 247.775 281.829 262.546 281.009C274.034 280.188 284.291 286.343 288.805 296.19C292.087 292.497 296.19 290.035 301.114 290.035C303.986 289.625 306.037 290.035 308.089 290.856Z" fill="#6B6B1E"/>
<path d="M70.1142 256.801C72.9863 256.801 75.4481 258.852 76.2687 261.314C75.0378 260.493 73.8069 260.083 72.576 260.083C68.8833 260.083 65.6009 262.955 65.1906 266.648C63.5494 266.648 62.3185 267.879 62.3185 269.52L60.6773 314.653H58.2155L60.267 266.238C60.267 264.596 61.4979 263.366 63.1391 263.366C63.1391 259.673 66.4215 256.801 70.1142 256.801ZM79.1408 265.417C79.5511 265.827 79.5511 266.238 79.5511 267.058V267.469H79.1408C79.1408 266.648 79.1408 265.827 79.1408 265.417ZM127.146 258.852C130.018 258.852 132.48 260.904 133.3 263.366C132.069 262.545 130.839 262.135 129.608 262.135C125.915 262.135 122.633 265.007 122.222 268.699C120.581 268.699 119.35 269.93 119.35 271.572L117.709 314.653H115.247L116.888 268.289C116.888 266.648 118.119 265.417 119.76 265.417C120.171 261.724 123.453 258.852 127.146 258.852ZM136.172 267.469C136.583 267.879 136.583 268.289 136.583 269.11V269.52H136.172C136.172 268.699 136.172 268.289 136.172 267.469ZM41.8035 255.57C44.6756 255.57 47.1374 257.621 47.958 260.083C46.7271 259.263 45.4962 258.852 44.2653 258.852C40.5726 258.852 37.2902 261.724 36.8799 265.417C35.2387 265.417 34.0078 266.648 34.0078 268.289L32.3666 311.781C31.546 311.371 30.7254 310.96 29.9048 310.96L31.546 265.007C31.546 263.366 32.7769 262.135 34.4181 262.135C34.4181 258.442 37.7005 255.57 41.8035 255.57ZM50.4198 264.186C50.8301 264.596 50.8301 265.007 50.8301 265.827V266.238H50.4198C50.8301 265.417 50.8301 265.007 50.4198 264.186ZM98.8352 258.032C101.707 258.032 104.169 260.083 104.99 262.545C103.759 261.724 102.528 261.314 101.297 261.314C97.6043 261.314 94.3219 264.186 93.9116 267.879C92.2704 267.879 91.0395 269.11 91.0395 270.751L89.3983 315.063H86.5262L88.1674 267.469C88.1674 265.827 89.3983 264.596 91.0395 264.596C91.4498 260.904 94.7322 257.621 98.8352 258.032ZM107.451 266.238C107.862 266.648 107.862 267.058 107.862 267.879V268.289H107.451C107.862 267.879 107.862 267.058 107.451 266.238Z" fill="#E37165"/>
<path d="M146.43 247.364L143.968 314.653H48.7788C38.5213 314.653 28.6741 311.371 20.8784 305.627L23.3402 242.44L146.43 247.364Z" fill="#FF9378"/>
<path d="M146.431 247.364L146.02 258.852L23.3406 243.261V242.851L146.431 247.364Z" fill="#E37165"/>
<path d="M23.3399 220.694L139.044 225.208L138.224 246.954L22.5193 242.44L23.3399 220.694Z" fill="white"/>
<path d="M150.123 151.764L147.251 225.208L24.1611 220.694L27.0332 146.84L150.123 151.764Z" fill="#FFB291"/>
<path d="M150.123 151.764L149.713 160.791L27.033 147.661V146.84L150.123 151.764Z" fill="#FF9378"/>
<path d="M141.097 56.5744L138.225 130.428L40.5732 126.325L43.4453 52.4714C43.8556 52.4714 44.2659 52.4714 44.6762 52.4714L139.866 56.5744C140.276 56.5744 140.686 56.5744 141.097 56.5744Z" fill="#FFCDCC"/>
<path d="M141.096 56.5748L140.686 65.1911L43.4451 53.7027V52.8821C43.8554 52.8821 44.2657 52.8821 44.676 52.8821L139.866 56.5748C140.276 56.5748 140.686 56.5748 141.096 56.5748Z" fill="#FFBD91"/>
<path d="M70.1142 256.801C73.8069 256.801 77.0893 260.083 76.679 264.186C78.3202 264.186 79.5511 265.417 79.5511 267.058L77.4996 315.063H57.8052L59.8567 266.648C59.8567 265.007 61.0876 263.776 62.7288 263.776C63.1391 259.673 66.4215 256.801 70.1142 256.801ZM127.146 258.852C130.839 258.852 134.121 262.135 133.711 266.238C135.352 266.238 136.583 267.469 136.583 269.11L134.942 314.653H115.247L116.888 268.289C116.888 266.648 118.119 265.417 119.76 265.417C120.171 261.724 123.453 258.852 127.146 258.852ZM41.8035 255.57C45.4962 255.57 48.7786 258.852 48.3683 262.955C50.0095 262.955 51.2404 264.186 51.2404 265.827L49.1889 314.653H48.7786C42.2138 314.653 35.649 313.422 29.9048 310.55L31.546 264.596C31.546 262.955 32.7769 261.724 34.4181 261.724C34.4181 258.442 37.7005 255.57 41.8035 255.57ZM98.8352 258.032C102.528 258.032 105.81 261.314 105.4 265.417C107.041 265.417 108.272 266.648 108.272 268.289L106.631 315.063H86.5262L88.1674 267.469C88.1674 265.827 89.3983 264.596 91.0395 264.596C91.4498 260.904 94.7322 257.621 98.8352 258.032Z" fill="#4A283E"/>
<path d="M73.8068 163.663C77.4995 163.663 80.7819 166.945 80.3716 171.048C82.0128 171.048 83.2438 172.279 83.2438 173.92L81.1922 225.618C81.1922 227.259 79.9613 228.49 78.3201 228.49L64.37 228.08C62.7288 228.08 61.4978 226.849 61.4978 225.208L63.5493 173.51C63.5493 171.869 64.7803 170.638 66.4215 170.638C66.8318 166.535 69.7038 163.253 73.8068 163.663ZM130.839 165.714C134.531 165.714 137.814 168.997 137.403 173.1C139.045 173.1 140.275 174.331 140.275 175.972L138.224 227.67C138.224 229.311 136.993 230.542 135.352 230.542L121.402 230.131C119.76 230.131 118.53 228.901 118.53 227.259L120.581 175.562C120.581 173.92 121.812 172.69 123.453 172.69C123.453 168.587 126.736 165.714 130.839 165.714ZM45.0859 162.432C48.7786 162.432 52.061 165.714 51.6507 169.817C53.2919 169.817 54.5228 171.048 54.5228 172.69L52.4713 224.387C52.4713 226.028 51.2404 227.259 49.5992 227.259L35.649 226.849C34.0078 226.849 32.7769 225.618 32.7769 223.977L34.8284 172.279C34.8284 170.638 36.0593 169.407 37.7005 169.407C38.1108 165.304 41.3932 162.432 45.0859 162.432ZM102.118 164.484C105.81 164.484 109.093 167.766 108.682 171.869C110.324 171.869 111.554 173.1 111.554 174.741L109.503 226.439C109.503 228.08 108.272 229.311 106.631 229.311L92.6806 228.901C91.0394 228.901 89.8085 227.67 89.8085 226.028L91.86 174.331C91.86 172.69 93.0909 171.459 94.7321 171.459C95.1424 167.356 98.4248 164.484 102.118 164.484Z" fill="#4A283E"/>
<path d="M91.8606 66.8322C95.5533 66.8322 98.8357 70.1146 98.4254 74.2176C100.067 74.2176 101.297 75.4485 101.297 77.0897L99.246 128.788C99.246 130.429 98.0151 131.66 96.3739 131.66L82.4237 130.839C80.7825 130.839 79.5516 129.608 79.5516 127.967L81.6031 76.2691C81.6031 74.6279 82.834 73.397 84.4752 73.397C84.4752 69.7043 87.7576 66.8322 91.8606 66.8322ZM63.1396 65.6013C66.8323 65.6013 70.1147 68.8837 69.7044 72.9867C71.3456 72.9867 72.5765 74.2176 72.5765 75.8588L70.525 127.557C70.525 129.198 69.2941 130.429 67.6529 130.429L53.7027 129.608C52.0615 129.608 50.8306 128.377 50.8306 126.736L52.8821 75.0382C52.8821 73.397 54.113 72.1661 55.7542 72.1661C56.1645 68.4734 59.4469 65.6013 63.1396 65.6013ZM120.171 68.0631C123.864 68.0631 127.146 71.3455 126.736 75.4485C128.377 75.4485 129.608 76.6794 129.608 78.3206L127.557 129.608C127.557 131.249 126.326 132.48 124.685 132.48L110.734 132.07C109.093 132.07 107.862 130.839 107.862 129.198L109.914 77.5C109.914 75.8588 111.145 74.6279 112.786 74.6279C113.196 70.9352 116.479 67.6528 120.171 68.0631Z" fill="#6E284B"/>
<path d="M73.8072 163.663C76.6793 163.663 79.1411 165.714 79.9617 168.176C78.7308 167.356 77.4999 166.945 76.269 166.945C72.5763 166.945 69.2939 169.817 68.8836 173.51C67.2424 173.51 66.0115 174.741 66.0115 176.382L64.3703 222.336H61.9085L63.96 173.1C63.96 171.459 65.1909 170.228 66.8321 170.228C66.8321 166.535 69.7042 163.253 73.8072 163.663ZM82.8338 172.279C83.2441 172.69 83.2441 173.1 83.2441 173.92V174.331H82.8338C82.8338 173.51 82.8338 172.69 82.8338 172.279ZM130.839 165.714C133.711 165.714 136.173 167.766 136.993 170.228C135.762 169.407 134.532 168.997 133.301 168.997C129.608 168.997 126.326 171.869 125.915 175.562C124.274 175.562 123.043 176.793 123.043 178.434L121.402 224.387H118.94L120.992 175.151C120.992 173.51 122.223 172.279 123.864 172.279C123.453 168.587 126.736 165.714 130.839 165.714ZM139.865 174.331C140.276 174.741 140.276 175.151 140.276 175.972V176.382H139.865C139.865 175.562 139.865 174.741 139.865 174.331ZM45.0862 162.432C47.9583 162.432 50.4201 164.484 51.2407 166.945C50.0098 166.125 48.7789 165.714 47.548 165.714C43.8553 165.714 40.5729 168.587 40.1626 172.279C38.5214 172.279 37.2905 173.51 37.2905 175.151L35.6493 221.105H33.1875L35.239 171.869C35.239 170.228 36.4699 168.997 38.1111 168.997C38.1111 165.304 41.3935 162.432 45.0862 162.432ZM54.1128 171.048C54.5231 171.459 54.5231 171.869 54.5231 172.69V173.1H54.1128C54.5231 172.279 54.5231 171.459 54.1128 171.048ZM102.118 164.484C104.99 164.484 107.452 166.535 108.272 168.997C107.041 168.176 105.811 167.766 104.58 167.766C100.887 167.766 97.6046 170.638 97.1943 174.331C95.5531 174.331 94.3222 175.562 94.3222 177.203L92.681 223.156H90.2192L92.2707 173.92C92.2707 172.279 93.5016 171.048 95.1428 171.048C95.1428 167.356 98.4252 164.484 102.118 164.484ZM111.144 173.1C111.555 173.51 111.555 173.92 111.555 174.741V175.151H111.144C111.555 174.331 111.555 173.92 111.144 173.1Z" fill="#C45368"/>
<path d="M91.8599 66.8322C94.732 66.8322 97.1938 68.8837 98.0144 71.3455C96.7835 70.5249 95.5526 70.1146 94.3217 70.1146C90.629 70.1146 87.3466 72.9867 86.9363 76.6794C85.2951 76.6794 84.0642 77.9103 84.0642 79.5515L82.0127 127.967H79.5509L81.6024 76.2691C81.6024 74.6279 82.8333 73.397 84.4745 73.397C84.4745 69.7043 87.7569 66.8322 91.8599 66.8322ZM100.887 75.4485C101.297 75.8588 101.297 76.2691 101.297 77.0897V77.5H100.887C100.887 76.6794 100.887 75.8588 100.887 75.4485ZM63.1389 65.6013C66.011 65.6013 68.4728 67.6528 69.2934 70.1146C68.0625 69.294 66.8316 68.8837 65.6007 68.8837C61.908 68.8837 58.6256 71.7558 58.2153 75.4485C56.5741 75.4485 55.3432 76.6794 55.3432 78.3206L53.702 126.736H51.2402L53.2917 75.0382C53.2917 73.397 54.5226 72.1661 56.1638 72.1661C56.1638 68.4734 59.4462 65.6013 63.1389 65.6013ZM72.1655 74.2176C72.5758 74.6279 72.5758 75.0382 72.5758 75.8588V76.2691H72.1655C72.5758 75.4485 72.5758 75.0382 72.1655 74.2176ZM120.171 68.0631C123.043 68.0631 125.505 70.1146 126.325 72.5764C125.094 71.7558 123.863 71.3455 122.632 71.3455C118.94 71.3455 115.657 74.2176 115.247 77.9103C113.606 77.9103 112.375 79.1412 112.375 80.7824L110.323 129.198H107.862L109.913 77.5C109.913 75.8588 111.144 74.6279 112.785 74.6279C113.196 70.9352 116.478 67.6528 120.171 68.0631ZM129.197 76.6794C129.608 77.0897 129.608 77.5 129.608 78.3206V78.7309H129.197C129.608 77.9103 129.608 77.0897 129.197 76.6794Z" fill="#E37165"/>
<path d="M6.92871 290.856C13.4935 301.934 23.751 309.73 36.4703 313.012C41.8042 304.806 51.2411 288.394 44.6763 283.06C35.6497 275.675 18.4171 296.6 18.4171 296.6C18.4171 296.6 31.1364 269.931 20.0583 266.648C12.2626 264.186 7.33901 276.495 6.92871 290.856Z" fill="#6B6B1E"/>
<path d="M37.7011 313.422C50.0101 299.472 70.5251 272.802 59.8573 266.238C45.0865 256.801 21.2891 293.317 21.2891 293.317C21.2891 293.317 40.9835 259.673 22.9303 250.646C13.4934 246.133 7.33894 264.596 3.64624 283.47C9.39044 298.241 22.1097 309.729 37.7011 313.422Z" fill="#8C8C2F"/>
<path d="M37.7011 313.422C39.7526 311.371 41.8041 308.909 43.8556 306.037C47.5483 298.241 49.5998 288.804 43.4453 283.47C37.2908 278.136 30.726 281.829 25.8024 286.342C22.9303 290.035 21.2891 292.907 21.2891 292.907C21.2891 292.907 22.1097 291.676 22.9303 289.625C20.0582 293.318 18.417 296.19 18.417 296.19C18.417 296.19 28.2642 264.597 18.0067 265.827C12.2625 266.648 6.92864 275.675 3.64624 283.06C9.39044 298.651 22.1097 309.73 37.7011 313.422Z" fill="#6B6B1E"/>
<path d="M39.7529 30.3155L140.687 34.4185C146.021 34.8288 150.534 39.3421 150.124 44.676C149.713 50.0099 145.2 54.5232 139.866 54.1129L38.9323 50.0099C33.5984 50.0099 29.4954 45.4966 29.4954 39.7524C29.9057 34.4185 34.419 29.9052 39.7529 30.3155Z" fill="white"/>
<path d="M17.1859 217.412L150.944 222.746C157.098 223.156 161.611 228.08 161.611 234.235C161.201 240.389 156.278 244.902 150.123 244.902L16.3653 239.158C10.2108 238.748 5.69751 233.824 5.69751 227.67C5.69751 221.926 11.0314 217.002 17.1859 217.412Z" fill="white"/>
<path d="M18.8268 220.284L152.585 225.618C158.739 226.028 163.252 230.952 163.252 237.106C162.842 243.261 157.918 247.774 151.764 247.774L18.0062 242.44C11.8517 242.03 7.33838 237.106 7.33838 230.952C7.74868 224.797 12.6723 220.284 18.8268 220.284Z" fill="#C45368"/>
<path d="M18.8268 220.284L46.3169 221.515C52.4714 221.925 56.9847 226.849 56.9847 233.003C56.5744 239.158 51.6508 243.671 45.4963 243.671L18.0062 242.44C11.8517 242.03 7.33838 237.106 7.33838 230.952C7.74868 224.797 12.6723 220.284 18.8268 220.284Z" fill="#E37165"/>
<path d="M23.7507 123.453L151.354 128.377C157.098 128.787 161.611 133.711 161.611 139.455C161.201 145.199 156.278 149.713 150.533 149.713L22.9301 144.789C17.1859 144.379 12.6726 139.455 12.6726 133.711C13.0829 127.967 18.0065 123.453 23.7507 123.453Z" fill="white"/>
<path d="M25.3913 125.915L152.995 130.839C158.739 131.249 163.252 136.173 163.252 141.917C162.842 147.661 157.918 152.174 152.174 152.174L24.5707 146.84C18.8265 146.43 14.3132 141.506 14.3132 135.762C14.7235 130.018 19.6471 125.505 25.3913 125.915Z" fill="#C45368"/>
<path d="M25.3917 125.915L52.4715 127.146C58.2157 127.556 63.1393 132.48 62.729 138.224C62.3187 144.379 57.3951 148.892 51.6509 148.482L24.9814 147.251C18.8269 146.84 14.3136 141.917 14.7239 136.173C14.3136 130.428 19.2372 125.505 25.3917 125.915Z" fill="#E37165"/>
<path d="M42.6245 32.7772L143.558 36.8802C148.892 37.2905 153.405 41.8038 152.995 47.1377C152.585 52.4716 148.072 56.9849 142.738 56.5746L41.8039 52.4716C36.47 52.0613 31.9567 47.548 32.367 42.2141C32.367 36.8802 36.8803 32.3669 42.6245 32.7772Z" fill="#C45368"/>
<path d="M41.3933 32.7771L66.0113 33.5977C71.3452 34.008 75.8585 38.5213 75.4482 43.8552C75.4482 49.5994 70.9349 53.7024 65.1907 53.7024L40.5727 52.8818C35.2388 52.4715 30.7255 47.9582 31.1358 42.6243C31.1358 36.8801 36.0594 32.3668 41.3933 32.7771Z" fill="#E37165"/>
<path d="M210.027 199.769C210.027 199.769 202.231 199.359 195.666 202.641C195.666 202.641 192.384 196.076 184.999 194.025C184.999 194.025 191.974 193.615 196.897 198.128C196.897 198.128 203.872 196.897 210.027 199.769Z" fill="white"/>
<path d="M239.158 176.792C239.158 176.792 233.824 176.792 228.9 178.844C228.9 178.844 226.438 174.331 221.515 172.689C221.515 172.689 226.438 172.279 229.721 175.561C229.721 175.561 234.644 174.741 239.158 176.792Z" fill="white"/>
<path d="M5.28687 86.5264C5.28687 86.5264 10.6208 86.5264 15.5444 88.5779C15.5444 88.5779 18.0062 84.0646 22.9298 82.4234C22.9298 82.4234 18.0062 82.0131 14.7238 85.2955C14.7238 85.2955 9.38986 84.4749 5.28687 86.5264Z" fill="white"/>
</svg>
