<svg width="450" height="517" viewBox="0 0 450 517" fill="none" xmlns="http://www.w3.org/2000/svg">
<path d="M276.47 486.52H59.9219C33.4141 486.52 11.8 464.906 11.8 438.398L11.8 48.1219C11.8 21.6141 33.4141 0 59.9219 0L276.47 0C302.978 0 324.592 21.6141 324.592 48.1219V438.398C324.592 464.906 302.978 486.52 276.47 486.52Z" fill="#C5E5ED"/>
<path d="M450 327.443L448.859 320.305H422.625C414.07 320.305 406.656 326.016 406.371 333.154L405.801 344.86H388.977L386.125 410.529H409.508C418.063 410.529 425.477 416.239 425.762 423.377L426.902 447.36H450V327.443ZM377 372.269L380.137 305.458C380.422 298.32 373.578 292.61 365.023 292.61H315.977C307.422 292.61 300.008 298.32 299.723 305.458L298.297 335.152H272.062C263.508 335.152 256.094 340.863 255.809 348L254.668 371.984H231V474.77V402.82L232.141 395.682H258.945C267.5 395.682 274.914 401.392 275.199 408.53L275.77 420.236H292.594L296.301 499.61H306.852L301.434 380.835C301.148 373.697 307.992 367.987 316.547 367.987H365.309C369.871 367.987 374.148 369.7 377 372.269Z" fill="#9EC7D9"/>
<path d="M12 327.443L13.1406 320.305H39.375C47.9297 320.305 55.3438 326.016 55.6289 333.154L56.1992 344.86H73.0234L75.875 410.529H52.4922C43.9375 410.529 36.5234 416.239 36.2383 423.377L35.0977 447.36H12L12 327.443ZM85 372.269L81.8633 305.458C81.5781 298.32 88.4219 292.61 96.9766 292.61H146.023C154.578 292.61 161.992 298.32 162.277 305.458L163.703 335.152H189.938C198.492 335.152 205.906 340.863 206.191 348L207.332 371.984H231V474.77V402.82L229.859 395.682H203.055C194.5 395.682 187.086 401.392 186.801 408.53L186.23 420.236H169.406L165.699 499.61H155.148L160.566 380.835C160.852 373.697 154.008 367.987 145.453 367.987H96.6914C92.1289 367.987 87.8516 369.7 85 372.269Z" fill="#9EC7D9"/>
<path d="M9 431.61V412.004C15.9462 412.004 22.0753 415.681 22.0753 415.681C22.0753 415.681 24.1183 402.61 41.2796 402.61C58.4409 402.61 58.4409 416.497 58.4409 416.497C78.871 410.371 85 425.483 85 425.483L9 431.61Z" fill="#8C8C2F"/>
<path d="M326 413.804V434.61L219 424.419C219 424.419 224.412 412.53 235.237 417.201C235.237 417.201 256.054 399.791 286.031 400.64C316.008 401.489 310.179 423.57 310.179 423.57C310.179 423.57 315.591 415.502 326 413.804Z" fill="#8C8C2F"/>
<path d="M326 420.61V468.2C326 494.867 304.067 516.61 277.167 516.61H57.8329C30.9334 516.61 9 494.867 9 468.2L9 423.892L326 420.61Z" fill="#8C8C2F"/>
<path d="M340.965 492.974C332.274 507.073 316.962 516.61 299.167 516.61H79.8329C52.9334 516.61 31 494.633 31 467.68V457.313C110.871 453.581 258.197 447.361 205.64 459.801C134.46 476.388 173.36 495.048 278.475 491.73C301.236 491.316 322.342 491.73 340.965 492.974ZM348 434.921V456.069C340.551 456.484 333.102 456.484 325.239 456.484C277.648 456.898 239.161 452.337 239.161 446.532C239.161 440.312 277.648 435.336 325.239 434.921C333.102 434.506 340.965 434.506 348 434.921Z" fill="#6B6B1E"/>
<path d="M103 455.61C121.221 435.319 133.307 409.863 140.93 384.222C137.955 384.222 139.256 380.348 139.628 378.688C139.814 376.659 141.673 376.843 142.975 376.843C149.854 351.018 151.714 328.697 151.899 320.581V319.659C147.251 319.659 147.623 319.29 148.181 314.125C148.367 311.911 150.784 312.28 152.271 312.28C152.271 308.406 154.874 304.901 158.407 303.61L161.01 284.61H163.985L165.658 303.61C169.005 305.086 171.422 308.406 171.422 312.28C175.698 312.28 175.327 312.28 175.698 317.261C175.884 319.843 172.724 319.474 171.422 319.474V320.765C171.422 333.678 172.538 353.231 177.744 376.659C181.276 376.659 180.905 377.028 181.462 381.639C181.648 382.93 180.719 384.037 179.417 384.037C185.925 409.678 196.709 435.134 214 455.426H187.784C187.784 438.824 175.141 426.28 158.965 426.28C142.603 426.28 128.844 440.115 128.844 455.426H103V455.61ZM147.065 408.202H172.166L166.96 384.222L163.241 365.775C163.055 364.853 162.312 364.115 161.196 364.115C160.266 364.115 159.337 364.853 159.151 365.775L155.618 384.222H153.201L147.065 408.202Z" fill="white"/>
<path d="M107 455.61C152.957 402.649 152.771 319.61 152.771 319.61H162.593H172.414C172.414 319.61 172.043 402.649 218 455.61H191.501C191.501 439.556 178.344 426.454 162.222 426.454C146.1 426.454 132.943 439.556 132.943 455.61H107ZM152.586 408.185H172.414C173.155 408.185 173.711 408.001 174.082 407.447C174.452 406.894 174.638 406.34 174.452 405.602C172.599 398.959 170.932 391.762 169.449 384.012L164.075 361.868C163.89 360.945 162.963 360.207 162.037 360.392C161.11 360.392 160.184 361.13 159.998 362.052L155.736 384.196C154.254 391.762 152.401 399.143 150.733 405.786C150.548 406.34 150.733 407.078 151.104 407.632C151.289 408.001 151.845 408.185 152.586 408.185Z" fill="#F0E7DA"/>
<path d="M210.575 446.749C212.803 449.762 215.401 452.775 218 455.61H191.642C191.642 452.775 191.271 450.116 190.528 447.635C193.498 454.192 206.677 453.661 210.575 446.749ZM107 455.61C111.084 451.18 114.796 446.395 118.137 441.61C118.137 441.61 122.406 451.889 135.214 444.623C133.729 447.99 132.801 451.711 132.801 455.61H107Z" fill="#CCC5BA"/>
<path d="M132 416.649C132.186 416.302 132.372 415.956 132.372 415.61H193.395C194.326 417.341 195.07 419.245 196 420.975H193.581C192.837 422.187 190.233 423.052 187.07 423.052C183.349 423.052 180.372 421.841 180.372 420.11V419.937L132 416.649ZM142.605 421.841C143.349 421.841 144.093 422.533 144.093 423.225C144.093 423.918 143.349 424.61 142.605 424.61C141.86 424.61 141.116 423.918 141.116 423.225C141.116 422.533 141.674 421.841 142.605 421.841Z" fill="#CCC5BA"/>
<path d="M153 321.774C153 320.331 153 319.61 153 319.61H162.907H172.813C172.813 319.61 172.813 321.053 173 323.938L169.636 323.577C169.822 323.758 169.822 324.118 169.822 324.299C169.822 325.381 168.888 326.102 167.953 326.102C166.832 326.102 166.084 325.2 166.084 324.299C166.084 323.938 166.271 323.577 166.458 323.217L153 321.774ZM156.364 327.725C157.112 327.725 157.86 328.446 157.86 329.167C157.86 329.889 157.112 330.61 156.364 330.61C155.617 330.61 154.869 329.889 154.869 329.167C154.869 328.266 155.617 327.725 156.364 327.725Z" fill="#CCC5BA"/>
<path d="M143 385.74C143.553 384.03 143.921 382.32 144.289 380.61H180.763C181.316 383.08 182.053 385.55 182.789 388.02L169.895 387.26C169.711 386.12 169.526 385.17 169.158 384.03H155.711C155.526 384.79 155.342 385.74 155.158 386.5L143 385.74ZM153.5 390.11C153.868 390.11 154.053 390.11 154.421 390.3C154.053 392.39 153.5 394.29 153.132 396.19C151.658 396 150.553 394.67 150.553 393.15C150.553 391.44 151.842 390.11 153.5 390.11ZM183.158 389.54C183.711 391.06 184.079 392.77 184.632 394.29C184.263 394.48 183.895 394.48 183.526 394.48C182.237 394.48 181.132 393.34 181.132 392.01C181.132 390.68 182.053 389.54 183.158 389.54ZM184.079 397.71C184.632 397.71 185 398.09 185 398.66C185 399.23 184.632 399.61 184.079 399.61C183.526 399.61 183.158 399.23 183.158 398.66C182.974 398.09 183.526 397.71 184.079 397.71Z" fill="#CCC5BA"/>
<path d="M128.109 415.61H197.891C198.632 415.61 199.187 415.431 199.557 414.892C199.927 414.354 200.112 413.815 199.927 413.277L199.002 410.046C198.817 409.149 197.891 408.61 196.966 408.61H129.034C128.109 408.61 127.368 409.149 126.998 410.046L126.073 413.277C125.888 413.815 126.073 414.533 126.443 414.892C126.998 415.251 127.553 415.61 128.109 415.61Z" fill="#F0E7DA"/>
<path d="M150.993 319.61H151.174H156.611H168.389H174.007C174.55 319.61 175.094 319.426 175.456 318.873C175.819 318.505 176 317.952 176 317.4L175.819 314.084C175.638 312.979 174.913 312.242 173.826 312.242H171.832C171.832 308.373 169.477 304.873 166.034 303.584L164.04 284.61H161.141L159.148 303.584C155.705 305.057 153.349 308.373 153.349 312.242H151.356C150.268 312.242 149.544 312.979 149.362 314.084L149 317.4C149 317.952 149.181 318.505 149.544 318.873C149.906 319.242 150.45 319.61 150.993 319.61Z" fill="#F0E7DA"/>
<path d="M151.243 319.61H151.43H154.42H156.476C157.41 319.61 158.158 318.81 157.971 317.81L157.784 313.41C157.784 312.41 156.85 311.61 155.915 311.61H154.794H153.486H151.43C150.308 311.61 149.561 312.41 149.374 313.61L149 317.21C149 317.81 149.187 318.41 149.561 318.81C150.121 319.21 150.682 319.61 151.243 319.61Z" fill="white"/>
<path d="M143.057 384.61H181.943C182.504 384.61 183.065 384.41 183.439 383.81C183.813 383.21 184 382.61 184 382.01L183.439 378.41C183.252 377.41 182.504 376.61 181.383 376.61H143.617C142.683 376.61 141.748 377.41 141.561 378.41L141 382.01C141 382.61 141 383.21 141.561 383.81C141.935 384.21 142.496 384.61 143.057 384.61Z" fill="#F0E7DA"/>
<path d="M14 396.61C22.1913 397.514 30.0792 401.733 30.9894 414.994C41.6078 408.665 45.2483 420.418 40.3942 424.638C40.3942 424.638 70.7324 415.295 94.0928 428.857C117.453 442.72 104.104 476.172 104.104 476.172C104.104 476.172 114.116 474.665 116.846 484.309H49.7991C30.0792 484.61 14 468.637 14 449.048L14 396.61ZM142.331 484.61H125.038C123.824 479.185 123.217 473.158 126.251 472.254C131.409 471.048 134.746 479.487 134.746 479.487C134.746 479.487 137.78 468.336 143.544 470.747C146.275 472.254 144.758 478.583 142.331 484.61Z" fill="#4A283E"/>
<path d="M127.753 486.61H114.984C114.619 474.233 130.125 479.221 127.753 486.61ZM106.411 485.317C98.0197 482.361 92 474.233 92 464.811V462.04C94.3714 460.377 97.4724 459.084 101.121 459.823C109.512 461.486 108.052 473.309 103.857 474.972C103.857 474.972 110.606 474.787 111.701 478.666C112.43 480.883 109.147 483.47 106.411 485.317Z" fill="#4A283E"/>
<path d="M158.146 305.279C159.562 304.262 160.801 304.465 160.978 305.482C161.155 306.5 160.27 308.127 158.854 308.941C157.438 309.959 156.199 309.755 156.022 308.738C155.845 307.72 156.73 306.093 158.146 305.279Z" fill="white"/>
<path d="M141.75 384.61H155.25C155.438 384.61 155.625 384.41 155.813 383.81C156 383.21 156 382.61 156 382.01L155.813 378.41C155.813 377.41 155.438 376.61 155.062 376.61H141.938C141.562 376.61 141.375 377.41 141.188 378.41L141 382.01C141 382.61 141 383.21 141.188 383.81C141.375 384.21 141.563 384.61 141.75 384.61Z" fill="white"/>
<path d="M126.93 415.61H162.07C162.442 415.61 162.628 415.435 162.814 414.91C163 414.385 163 413.86 163 413.335L162.628 410.185C162.442 409.135 162.07 408.61 161.513 408.61H127.302C126.744 408.61 126.372 409.135 126.372 410.01L126 413.16C126 413.685 126 414.385 126.186 414.735C126.372 415.26 126.558 415.61 126.93 415.61Z" fill="white"/>
<path d="M56.319 389.61C60.5205 389.61 65.1887 392.177 66.5892 395.11C67.9897 398.043 65.6555 400.61 61.9209 400.61C57.7195 400.61 53.0512 398.043 51.6508 395.11C49.7835 391.81 52.1176 389.61 56.319 389.61Z" fill="#8C8C2F"/>
<path d="M316.943 398.846C314.727 399.295 312.511 401.988 312.068 404.232C311.625 406.476 313.398 408.272 316.057 407.374C318.273 406.925 320.489 404.232 320.932 401.988C321.375 399.744 319.602 397.949 316.943 398.846Z" fill="#8C8C2F"/>
<path d="M80.0717 401.085C71.2791 409.575 60.0609 423.825 51.2683 445.048H51.8747C60.6673 424.128 71.8855 410.181 80.3749 401.692L80.0717 401.085Z" fill="#4A283E"/>
<path d="M59.4547 428.979C59.4547 428.979 61.577 413.516 55.21 415.638C48.8429 417.458 54.3004 427.766 59.4547 428.979Z" fill="#4A283E"/>
<path d="M61.8802 424.431C61.8802 424.431 75.8271 417.154 75.5239 423.825C75.2207 430.798 61.577 426.856 61.8802 424.431Z" fill="#4A283E"/>
<path d="M66.1251 418.367C66.1251 418.367 68.8538 404.723 62.7899 406.542C56.7261 408.362 60.0612 416.851 66.1251 418.367Z" fill="#4A283E"/>
<path d="M68.5503 414.729C68.5503 414.729 77.9493 409.878 79.162 415.032C80.3748 419.883 68.2471 419.277 68.5503 414.729Z" fill="#4A283E"/>
<path d="M73.0984 408.968C73.0984 408.968 76.1303 400.479 71.5824 399.872C67.0345 399.569 67.9441 408.665 73.0984 408.968Z" fill="#4A283E"/>
<path d="M76.7366 405.027C76.7366 405.027 85.5292 401.085 85.226 405.633C85.226 410.181 75.827 408.665 76.7366 405.027Z" fill="#4A283E"/>
<path d="M53.3907 441.107C53.3907 441.107 55.5131 425.644 49.146 427.766C42.7789 429.585 48.2364 439.894 53.3907 441.107Z" fill="#4A283E"/>
<path d="M55.5129 436.559C55.5129 436.559 69.4598 429.282 69.1566 435.952C68.5502 442.926 55.2097 438.984 55.5129 436.559Z" fill="#4A283E"/>
<path d="M0 291.285L0 300.61H59.7852C58.7112 293.15 43.6754 287.555 32.2196 296.032C31.5036 291.116 18.6158 278.231 0 291.285ZM70.1671 296.032C72.852 296.032 75 298.067 75 300.61H65.3341C65.1551 298.067 67.4821 296.032 70.1671 296.032Z" fill="white"/>
<path d="M280 310.61H252.556C253.711 301.645 266.422 294.126 280 295.861V310.61ZM235.8 302.513C231.467 302.513 228 305.983 228 310.321H243.6C243.6 306.272 240.133 302.513 235.8 302.513Z" fill="white"/>
</svg>
