<svg width="330" height="311" viewBox="0 0 330 311" fill="none" xmlns="http://www.w3.org/2000/svg">
<path d="M58.3382 0.288818L273.177 0.288818C299.476 0.288818 320.919 21.7322 320.919 48.0308V262.87C320.919 289.168 299.476 310.612 273.177 310.612H58.3382C32.0396 310.207 10.5962 288.764 10.5962 262.465L10.5962 48.0308C10.5962 21.7322 32.0396 0.288818 58.3382 0.288818Z" fill="#BAF5FF"/>
<path d="M320.515 179.523V85.2532C296.644 88.4899 292.193 112.765 292.193 112.765C292.193 112.765 286.934 109.529 276.819 113.575C276.819 113.575 277.628 105.887 290.575 105.078C290.98 101.032 293.003 97.7956 293.003 97.7956C212.489 84.444 207.229 160.507 207.229 160.507C194.282 159.294 191.045 171.836 191.045 171.836C191.045 171.836 273.582 177.5 320.515 179.523Z" fill="#CFF8FF"/>
<path d="M10.5962 114.384L10.5962 169.408H156.25C156.25 169.408 154.227 165.767 148.158 158.484C142.089 150.797 123.073 144.728 103.653 148.774C84.2321 152.82 64.8116 133.804 57.529 126.117C49.8417 118.43 24.3524 116.407 10.5962 114.384Z" fill="white"/>
<path d="M10.5962 114.384L10.5962 169.408H149.776C149.776 169.408 147.753 165.767 141.684 158.484C135.615 150.797 116.6 144.728 97.1791 148.774C77.7586 152.82 59.5519 135.423 51.0555 126.117C44.582 120.048 24.3524 116.407 10.5962 114.384ZM156.25 169.408C156.25 169.408 160.7 161.721 164.342 160.912C167.983 159.698 179.716 162.126 179.716 162.126L186.594 172.645L156.25 169.408Z" fill="#6AA4D9"/>
<path d="M10.5962 114.384V135.423C21.9248 135.827 36.8947 136.232 40.1315 135.423C43.7728 134.613 47.8187 129.354 50.2463 125.712C44.582 119.643 23.9478 116.002 10.5962 114.384Z" fill="#87B9E8"/>
<path d="M58.3382 310.207H273.177C299.476 310.207 320.919 288.763 320.919 262.465V166.981H10.5962L10.5962 262.465C10.5962 288.763 32.0396 310.207 58.3382 310.207Z" fill="#57DBF2"/>
<path d="M58.3384 310.207H273.177C299.476 310.207 320.919 288.764 320.919 262.465V228.479C290.979 223.22 232.313 232.525 215.32 233.334C194.686 234.144 200.755 232.525 178.907 222.41C157.059 212.296 93.9425 228.075 88.2782 227.266C82.6139 226.456 132.379 207.845 63.5981 213.509C40.9409 215.128 23.5434 214.319 11.001 212.296L11.001 262.465C10.5964 288.764 32.0398 310.207 58.3384 310.207Z" fill="white"/>
<path d="M273.177 166.981H150.99H55.1014H10.5962V183.974C13.4283 183.974 16.6651 183.974 19.9018 184.378C52.6739 186.806 97.5837 186.806 61.9795 178.714C15.0467 167.79 163.937 172.645 167.174 172.645C198.327 173.859 154.631 179.928 142.898 180.333C131.165 180.737 113.767 182.76 145.73 188.02C177.693 193.684 158.677 197.73 102.843 200.967C47.0096 204.204 122.264 208.249 186.19 209.463C250.115 210.677 265.49 207.44 229.481 196.921C193.472 186.806 161.105 185.997 282.887 183.569C338.721 182.76 314.85 175.073 273.177 166.981ZM275.605 188.424C287.742 188.424 297.857 190.043 297.857 192.47C297.857 194.898 287.742 196.516 275.605 196.516C263.467 196.516 253.352 194.898 253.352 192.47C253.352 190.043 263.467 188.424 275.605 188.424ZM118.218 185.997C123.073 185.997 126.714 186.806 126.714 188.02C126.714 189.234 123.073 190.043 118.218 190.043C113.363 190.043 109.721 189.234 109.721 188.02C109.721 187.211 113.363 185.997 118.218 185.997Z" fill="#88FCFC"/>
<path d="M28.803 186.402C28.803 186.402 58.7429 189.234 74.1174 184.379C74.1174 184.379 63.598 199.349 28.803 186.402ZM179.716 198.54H233.122C233.122 198.54 207.633 208.654 179.716 198.54ZM237.573 184.379H311.209C311.613 184.379 275.2 173.859 237.573 184.379ZM78.9725 176.692H89.8965C89.8965 176.692 83.423 169.409 78.9725 176.692Z" fill="white"/>
<path d="M58.3382 310.207H273.177C299.476 310.207 320.919 288.764 320.919 262.465V253.564C299.071 250.732 254.161 244.663 226.244 240.617C193.877 235.762 158.677 239.808 129.547 240.213C130.76 236.976 131.569 233.739 129.142 233.739C124.691 233.335 124.287 238.594 124.287 238.594C124.287 238.594 123.478 231.312 119.432 232.525C117.004 233.335 118.218 236.976 119.432 240.213C117.813 240.213 116.195 240.213 114.577 239.808C92.7286 238.19 40.1315 225.647 10.5962 217.96L10.5962 262.465C10.5962 288.764 32.0396 310.207 58.3382 310.207Z" fill="#E3D24F"/>
<path d="M165.556 238.594C165.556 238.594 211.679 236.166 231.909 243.045C231.909 243.045 229.481 247.9 209.656 245.067C189.831 242.235 165.556 238.594 165.556 238.594Z" fill="#F2E585"/>
<path d="M228.268 310.207H272.773C299.071 310.207 320.515 288.764 320.515 262.465V253.564L305.949 251.541C314.446 258.419 313.637 264.083 293.002 265.702C255.375 268.939 237.169 291.596 228.268 310.207Z" fill="#C4A337"/>
<path d="M58.3382 310.207H128.333C129.951 306.161 135.615 303.329 142.089 303.329C148.562 303.329 154.227 306.161 155.845 310.207H165.151C168.792 269.748 148.562 276.221 106.889 259.228C91.5148 252.755 88.6826 246.281 91.1102 240.617C69.2622 240.617 51.4601 238.594 36.4901 235.762C36.4901 231.312 34.8718 224.838 25.1615 226.861C25.5661 220.388 23.5432 212.296 10.5962 210.273V229.289V232.93L10.5962 262.87C10.5962 288.764 32.0396 310.207 58.3382 310.207Z" fill="#C4A337"/>
<path d="M264.553 84.9502C265.144 124.604 267.505 217.424 278.427 309.95H292.596C299.975 309.95 307.059 307.6 312.668 303.488C312.963 303.194 313.258 302.901 313.553 302.607C299.385 255.609 285.511 152.509 285.511 85.2439L264.553 84.9502Z" fill="#6E284B"/>
<path d="M279.233 309.95H292.364C299.825 309.95 306.988 307.594 312.658 303.47C312.957 303.175 313.255 302.88 313.553 302.586C306.391 279.315 299.527 241.904 294.155 202.136C291.171 223.935 288.485 238.958 281.919 212.152C275.055 182.105 278.039 267.237 279.233 309.95ZM284.008 195.95C285.202 195.95 286.396 197.423 286.396 199.191C286.396 200.958 285.202 202.431 284.008 202.431C282.814 202.431 281.621 200.958 281.621 199.191C281.621 197.423 282.814 195.95 284.008 195.95Z" fill="#4A283E"/>
<path d="M264.553 103.763C265.451 149.517 268.741 229.88 278.314 309.95H278.912C277.716 294.699 276.519 278.861 275.622 262.73C292.972 267.422 299.553 256.864 299.553 256.864C288.485 261.556 278.314 258.33 275.323 257.157C274.425 241.612 273.827 226.068 273.229 210.816C285.194 212.869 292.075 204.364 292.075 204.364C284.895 208.763 277.417 207.59 273.229 206.417C272.63 192.045 272.331 178.26 272.032 165.062C281.306 166.822 286.391 161.542 286.391 161.542C280.109 163.302 274.724 162.129 272.032 161.249C271.733 146.878 271.434 133.386 271.135 121.361C278.314 121.361 284.596 113.149 284.596 113.149C279.212 116.375 274.425 116.961 271.135 116.961C271.135 110.802 270.836 105.23 270.836 99.9502C268.442 101.123 266.348 102.297 264.553 103.763Z" fill="#A63F73"/>
<path d="M202.827 137.95C202.827 137.95 198.688 107.453 222.634 84.9502H274.075L275.553 88.7994L230.912 119L222.93 108.933C222.93 108.933 225.295 117.224 226.773 121.665L202.827 137.95Z" fill="#4A283E"/>
<path d="M202.832 137.95C202.832 137.95 198.609 107.453 223.045 84.9502H224.553C212.788 100.347 210.978 119.889 211.279 132.621L202.832 137.95Z" fill="#6E284B"/>
<path d="M276.553 84.9502L309.866 107.036L318.415 96.2835C311.929 89.3092 302.79 84.9502 292.473 84.9502H276.553ZM318.71 96.5741C318.12 98.8989 315.762 105.873 314.582 110.232L327.553 118.95C327.259 110.232 324.016 102.677 318.71 96.5741Z" fill="#4A283E"/>
<path d="M211.412 277.066C213.84 270.997 219.1 264.523 230.024 267.355C230.024 267.355 232.047 223.659 291.926 230.942C310.538 232.965 321.057 238.225 327.126 244.698C320.652 263.309 302.85 277.066 281.811 277.066H211.412ZM177.831 277.066H202.107C201.702 270.592 196.442 265.737 189.969 265.737C183.495 265.737 178.236 270.592 177.831 277.066ZM329.553 216.377C322.675 218.4 318.629 228.11 328.34 239.439C329.149 236.202 329.553 232.965 329.553 229.728V216.377Z" fill="#4A283E"/>
<path d="M263.871 35.4883C263.871 35.4883 260.23 48.4353 233.931 50.8628C233.527 50.8628 258.207 60.1685 263.871 35.4883Z" fill="#4A283E"/>
<path d="M290.553 157.95C290.553 157.95 286.01 166.351 267.553 163.744C267.553 163.454 282.603 174.172 290.553 157.95Z" fill="#4A283E"/>
<path d="M294.553 201.95C294.553 201.95 289.134 212.052 266.553 208.991C266.553 208.991 285.22 221.542 294.553 201.95Z" fill="#4A283E"/>
<path d="M286.529 232.93C282.079 237.38 270.75 245.472 245.665 243.854C245.665 243.854 273.178 259.633 286.934 234.548L286.529 232.93Z" fill="#4A283E"/>
<path d="M226.382 202.621C238.115 213.95 253.085 232.966 264.818 261.287H264.009C252.276 233.37 237.306 214.759 225.977 203.43L226.382 202.621Z" fill="#4A283E"/>
<path d="M254.299 239.844C254.299 239.844 251.467 219.209 259.964 222.042C268.46 224.469 260.773 238.225 254.299 239.844Z" fill="#4A283E"/>
<path d="M250.658 233.775C250.658 233.775 232.046 224.065 232.451 232.966C233.26 242.271 251.467 237.012 250.658 233.775Z" fill="#4A283E"/>
<path d="M245.398 225.683C245.398 225.683 241.757 207.476 249.849 209.904C257.94 212.331 253.49 224.064 245.398 225.683Z" fill="#4A283E"/>
<path d="M241.757 220.828C241.757 220.828 229.214 214.354 227.596 221.232C225.977 228.111 242.566 226.897 241.757 220.828Z" fill="#4A283E"/>
<path d="M236.092 213.14C236.092 213.14 232.046 201.812 238.115 201.003C244.184 200.598 242.97 212.736 236.092 213.14Z" fill="#4A283E"/>
<path d="M231.237 208.285C231.237 208.285 219.504 203.026 219.909 209.095C219.909 215.163 232.451 212.736 231.237 208.285Z" fill="#4A283E"/>
<path d="M262.391 256.027C262.391 256.027 259.559 235.393 268.056 238.225C276.552 240.653 268.865 254.409 262.391 256.027Z" fill="#4A283E"/>
<path d="M259.559 249.959C259.559 249.959 240.948 240.248 241.352 249.149C241.757 258.455 259.964 253.195 259.559 249.959Z" fill="#4A283E"/>
<path d="M132.451 280.079C127.191 266.323 113.435 258.231 96.0374 260.254C96.442 254.185 100.893 249.734 100.893 249.734C94.8236 249.734 91.5869 251.757 89.9685 254.589C87.9455 227.077 39.799 229.1 23.2107 235.574C23.2107 235.574 20.7831 213.725 0.553467 212.512L0.553467 232.741C0.553467 259.04 21.9969 280.483 48.2954 280.483H132.451V280.079Z" fill="#6B6B1E"/>
<path d="M13.0244 277.435C18.6887 294.428 33.6587 307.375 51.8653 309.802C53.8883 305.757 58.3388 301.711 67.6445 301.306C78.1639 300.901 79.7822 306.566 84.6374 310.207H58.3388C56.3159 310.207 54.6975 310.207 52.6745 309.802C55.1021 298.474 52.6745 279.863 13.0244 277.435ZM107.699 310.207H127.12C125.501 307.78 120.242 306.566 107.699 310.207Z" fill="#4A283E"/>
<path d="M76.2122 200.374C64.479 211.703 49.5091 230.718 37.7759 259.04H38.5851C50.3183 231.123 65.2882 212.512 76.6168 201.183L76.2122 200.374Z" fill="#6B6B1E"/>
<path d="M48.7004 237.596C48.7004 237.596 51.5325 216.962 43.0361 219.794C34.5396 222.222 41.8223 235.978 48.7004 237.596Z" fill="#6B6B1E"/>
<path d="M51.9376 231.528C51.9376 231.528 70.5488 221.817 70.1442 230.718C69.7396 240.024 51.533 234.764 51.9376 231.528Z" fill="#6B6B1E"/>
<path d="M57.6019 223.435C57.6019 223.435 61.2432 205.229 53.1514 207.656C45.0595 210.084 49.51 221.817 57.6019 223.435Z" fill="#6B6B1E"/>
<path d="M60.838 218.581C60.838 218.581 73.3804 212.107 74.9988 218.985C76.6172 225.459 60.4334 224.649 60.838 218.581Z" fill="#6B6B1E"/>
<path d="M66.9069 210.893C66.9069 210.893 70.9528 199.565 64.8839 198.755C58.8151 198.351 60.0288 210.489 66.9069 210.893Z" fill="#6B6B1E"/>
<path d="M71.7621 205.634C71.7621 205.634 83.4953 200.374 83.0907 206.443C83.0907 212.512 70.1437 210.489 71.7621 205.634Z" fill="#6B6B1E"/>
<path d="M40.6086 253.78C40.6086 253.78 43.4407 233.146 34.9443 235.978C26.4478 238.406 33.7305 252.162 40.6086 253.78Z" fill="#6B6B1E"/>
<path d="M43.4406 247.711C43.4406 247.711 62.0519 238.001 61.6473 246.902C60.8381 256.208 43.036 250.948 43.4406 247.711Z" fill="#6B6B1E"/>
<path d="M122.264 293.214C127.119 294.024 130.761 296.451 130.356 298.879C129.952 301.306 125.906 302.925 121.051 302.115C116.195 301.306 112.554 298.879 112.959 296.451C112.959 294.024 117.409 292.405 122.264 293.214ZM108.913 293.214C110.126 293.214 111.34 294.428 111.34 295.237C111.34 296.047 110.126 296.451 108.508 296.451C107.294 296.451 106.081 295.237 106.081 294.428C106.081 293.619 107.294 293.214 108.913 293.214Z" fill="#8C8C2F"/>
</svg>
